<svg width="184" height="44" viewBox="0 0 184 44" fill="none" xmlns="http://www.w3.org/2000/svg">
<path d="M51.8438 29.7045H51.6L51.3467 22.1837L50.625 2.04724C52.876 2.04724 55.7005 1.98901 56.7165 4.47352C57.6262 6.69847 56.25 10.0295 55.712 12.2368C54.3446 17.8485 52.3156 23.9539 51.8438 29.7045Z" fill="#34623F"/>
<path d="M53.5509 32.1305C53.3391 30.4681 54.2527 28.3953 54.6982 26.7931C55.5689 23.6618 56.241 20.4781 57.0536 17.3314C57.3407 16.2203 57.535 13.4072 58.5631 12.7391C60.3897 11.5521 63.5135 14.9277 63.4741 16.6036C63.4079 19.4186 60.2009 22.6673 58.6352 24.8522C56.9122 27.2565 55.2199 29.6887 53.5509 32.1305Z" fill="#34623F"/>
<path fill-rule="evenodd" clip-rule="evenodd" d="M43.0698 0.00773986C45.8948 0.113944 47.8989 1.36995 48.513 4.23053C48.7992 5.56391 48.75 6.95532 48.701 8.34177C48.6692 9.24353 48.6374 10.1432 48.6979 11.0236C49.0416 16.019 49.0861 21.0323 49.1306 26.0455V26.0503C49.1408 27.1874 49.1509 28.3247 49.1644 29.4617C49.1731 30.1866 49.233 30.9364 49.2935 31.6942C49.4949 34.2153 49.7035 36.8268 48.0588 38.9197C45.8916 41.6774 41.7687 41.7435 38.2897 41.7993C37.6635 41.8094 37.058 41.819 36.4886 41.8441C31.9867 42.0421 27.4742 42.3975 22.9669 42.7524C20.4843 42.9478 18.0032 43.1432 15.5263 43.3121C14.5224 43.3805 13.4952 43.5003 12.4604 43.6208C10.4661 43.8533 8.44387 44.0891 6.50762 43.9664C4.28835 43.8257 2.11754 42.4521 1.26296 40.379C0.620052 38.8192 0.640275 37.1161 0.660205 35.4381C0.667612 34.8144 0.674975 34.1941 0.648229 33.586C0.60653 32.6391 0.562839 31.6927 0.519161 30.7465C0.380026 27.7327 0.240961 24.7204 0.166573 21.6983C0.154394 21.2023 0.118479 20.7153 0.0830989 20.2357C-0.0472356 18.4685 -0.170265 16.8005 0.928045 15.1489C2.66378 12.5382 6.18061 11.5143 9.28587 10.6102L9.6195 10.513C9.61721 12.3591 9.5964 14.0067 9.57629 15.5959C9.55306 17.4369 9.53079 19.1996 9.53938 21.1016C9.532 22.7972 9.58921 24.4782 9.79042 26.1091C10.0327 28.072 10.6742 30.0877 11.6901 31.7887C17.9605 42.285 32.7998 40.8836 37.7155 30.1903C37.9536 29.6723 37.9955 29.5393 38.1489 29.0523L38.1843 28.94C37.5122 29.1539 37.3418 29.2005 36.9632 29.3041C36.8576 29.333 36.7358 29.3663 36.5823 29.4089C36.5042 29.5652 36.387 29.8777 36.387 29.8777C34.1384 34.8314 29.5576 37.5114 24.5087 37.5329C20.8604 37.5485 17.2879 35.9246 14.6875 33.2298C11.288 29.7069 10.7909 25.3976 10.7725 20.9342L10.7769 19.7833C10.7879 16.9807 10.7989 14.1788 10.7928 11.376C10.7939 10.9595 10.7972 10.551 10.804 10.1583C11.0007 10.097 11.1937 10.0352 11.3826 9.97232C13.585 9.23895 15.7808 8.48546 17.9741 7.72478C18.009 8.6609 18.0088 9.48489 18.0059 10.6577C17.988 11.0923 17.9957 11.504 18.0028 11.8742C18.0055 12.0205 18.0082 12.1603 18.009 12.2924C18.9253 12.3011 19.812 12.292 20.6882 12.2829C22.1005 12.2685 23.4856 12.2543 24.9225 12.3149L25.3086 13.288L25.309 13.2889C25.8669 14.695 26.1403 15.3839 27.4392 18.6637C26.0223 18.6637 24.687 18.7153 23.3803 18.7658C22.1286 18.8142 20.9031 18.8615 19.6575 18.8615C19.2672 18.8615 18.9763 18.8659 18.7127 18.8699C18.4947 18.8731 18.2955 18.8761 18.0744 18.8761C18.0744 19.1534 18.0732 19.4307 18.0719 19.708V19.7088C18.0702 20.0779 18.0685 20.4471 18.0698 20.8163C18.0581 24.9873 18.257 29.448 23.1618 30.6901C24.0398 30.9124 25.2511 30.6983 25.7856 30.5646C26.3201 30.431 27.2726 30.0808 28.2598 29.3727C28.9604 28.8702 29.6273 28.1585 29.9399 27.7287C29.8357 27.4162 29.7489 27.121 29.6332 26.7273L29.6329 26.7264C29.5751 26.5299 29.51 26.3087 29.432 26.0485C26.7749 30.0731 22.9647 30.4638 20.5458 27.4784C19.1728 25.7837 19.1842 23.0486 19.1933 20.856C19.194 20.6817 19.1947 20.5109 19.1947 20.3444C22.6967 20.3444 26.0676 20.2023 29.3608 20.0635L29.6224 20.0524C28.3987 17.1665 27.9403 16.1042 27.1399 14.2497L27.1396 14.2489C26.7422 13.3279 26.2604 12.2115 25.5588 10.5795C24.4443 10.5795 23.3297 10.5821 22.2152 10.5847H22.2138C21.1962 10.5871 20.1784 10.5894 19.1609 10.5898C19.1847 9.50449 19.1892 8.41788 19.1711 7.33248L19.1714 7.30881C20.0022 7.01979 20.8327 6.73006 21.6632 6.44034L21.6659 6.43938C25.2195 5.19967 28.7733 3.95983 32.3449 2.77491C33.1223 2.51701 33.9078 2.2269 34.7008 1.93406C37.4105 0.933355 40.2082 -0.0998646 43.0698 0.00773986ZM39.3661 24.293C39.3661 26.7939 37.3291 28.8213 34.8164 28.8213C32.3038 28.8213 30.2668 26.7939 30.2668 24.293C30.2668 21.7921 32.3038 19.7647 34.8164 19.7647C37.3291 19.7647 39.3661 21.7921 39.3661 24.293Z" fill="#34623F"/>
<path d="M32.5058 22.8288V24.2237H33.8294V22.8288H34.5879V26.2243H33.8294V24.8498H32.5058V26.2243H31.7422V22.8288H32.5058ZM36.6805 24.2237C36.9894 24.3153 37.232 24.4358 37.4085 24.5851C37.5883 24.7344 37.6783 24.9431 37.6783 25.2113C37.6783 25.4217 37.6291 25.6084 37.5307 25.7713C37.4322 25.9307 37.2829 26.058 37.0827 26.1531C36.8858 26.2447 36.6432 26.2905 36.3547 26.2905C36.168 26.2905 35.9729 26.2684 35.7693 26.2243C35.569 26.1768 35.3824 26.1157 35.2093 26.0411L35.4333 25.4709C35.7625 25.6168 36.0697 25.6898 36.3547 25.6898C36.5244 25.6898 36.6567 25.6575 36.7518 25.5931C36.8502 25.5252 36.8994 25.4285 36.8994 25.3029C36.8994 25.2215 36.8689 25.1536 36.8078 25.0993C36.7467 25.0416 36.6754 24.9975 36.594 24.9669C36.5159 24.9329 36.3853 24.8838 36.202 24.8193C36.0051 24.7582 35.8389 24.692 35.7031 24.6208C35.5673 24.5495 35.452 24.4477 35.357 24.3153C35.2653 24.183 35.2195 24.0133 35.2195 23.8063C35.2195 23.6094 35.2687 23.4312 35.3671 23.2717C35.469 23.1122 35.6166 22.9866 35.81 22.895C36.0035 22.8034 36.2359 22.7576 36.5075 22.7576C36.6941 22.7576 36.8875 22.7813 37.0878 22.8288C37.288 22.8729 37.4763 22.9323 37.6529 23.007L37.4238 23.567C37.2812 23.5059 37.1285 23.4566 36.9656 23.4194C36.8061 23.3786 36.6534 23.3583 36.5075 23.3583C36.3581 23.3583 36.2342 23.3905 36.1358 23.455C36.0408 23.5195 35.9933 23.6077 35.9933 23.7197C35.9933 23.8147 36.0204 23.8911 36.0747 23.9488C36.129 24.0064 36.1969 24.0523 36.2784 24.0862C36.3632 24.1202 36.4973 24.166 36.6805 24.2237Z" fill="#34623F"/>
<path d="M65.4961 17.6613V14.6832H79.241V17.6613H74.2521V31.6607H70.4341V17.6613H65.4961ZM85.1201 32.0425C83.8646 32.0425 82.7529 31.7879 81.7857 31.2789C80.8184 30.7698 80.0548 30.0147 79.4949 29.0135C78.9521 28.0124 78.6803 26.7991 78.6803 25.3737C78.6803 23.1508 79.2231 21.4368 80.3094 20.2321C81.4121 19.0103 82.9737 18.3994 84.9928 18.3994C88.9298 18.3994 90.898 20.9787 90.898 26.1373H82.2947C82.2776 27.1045 82.5238 27.8596 83.0329 28.4026C83.542 28.9456 84.2375 29.2171 85.1201 29.2171C85.7819 29.2171 86.4691 29.1323 87.1818 28.9626C87.9117 28.776 88.5989 28.5299 89.2435 28.2245L90.2617 30.8716C89.4643 31.228 88.6155 31.5079 87.7163 31.7116C86.8172 31.9322 85.9518 32.0425 85.1201 32.0425ZM87.36 23.821C87.2582 22.8708 87.0036 22.192 86.5964 21.7847C86.2063 21.3605 85.6291 21.1484 84.8655 21.1484C84.1191 21.1484 83.5337 21.369 83.1092 21.8102C82.6848 22.2344 82.4048 22.9047 82.2693 23.821H87.36ZM108.119 18.4758C109.935 18.4758 111.267 18.8406 112.115 19.5703C112.964 20.283 113.388 21.4454 113.388 23.0574V31.6607H109.85V23.7192C109.85 22.175 108.976 21.4029 107.228 21.4029C106.498 21.4029 105.854 21.5811 105.294 21.9375C105.362 22.3277 105.396 22.7011 105.396 23.0574V31.6607H101.858V23.7192C101.858 22.175 100.984 21.4029 99.2359 21.4029C98.5404 21.4029 97.8532 21.5726 97.1742 21.912V31.6607H93.6362V19.9012C94.3317 19.5278 95.3244 19.1969 96.6142 18.9085C97.9206 18.62 99.0915 18.4758 100.127 18.4758C101.84 18.4758 103.105 18.7812 103.919 19.3921C104.564 19.1037 105.251 18.883 105.981 18.7303C106.728 18.5606 107.44 18.4758 108.119 18.4758ZM122.859 18.3994C124.946 18.3994 126.533 18.9594 127.619 20.0794C128.722 21.1823 129.274 22.9471 129.274 25.3737C129.274 27.4099 128.756 29.0305 127.721 30.2353C126.703 31.4401 125.312 32.0425 123.547 32.0425C122.427 32.0425 121.349 31.8219 120.314 31.3807V36.395H116.852V19.6975C118.906 18.8491 120.908 18.4164 122.859 18.3994ZM122.554 29.1662C123.64 29.1662 124.437 28.8608 124.946 28.2499C125.473 27.622 125.736 26.6294 125.736 25.2719C125.736 23.9992 125.498 23.0489 125.023 22.4211C124.565 21.7932 123.793 21.4793 122.707 21.4793C122.164 21.4793 121.714 21.5047 121.358 21.5557C121.018 21.6066 120.67 21.7084 120.314 21.8611V28.5808C120.942 28.9711 121.688 29.1662 122.554 29.1662ZM132.04 13.9451H135.552V31.6607H132.04V13.9451ZM144.752 32.0425C143.496 32.0425 142.385 31.7879 141.417 31.2789C140.45 30.7698 139.687 30.0147 139.127 29.0135C138.584 28.0124 138.312 26.7991 138.312 25.3737C138.312 23.1508 138.855 21.4368 139.941 20.2321C141.044 19.0103 142.605 18.3994 144.625 18.3994C148.562 18.3994 150.53 20.9787 150.53 26.1373H141.926C141.909 27.1045 142.156 27.8596 142.665 28.4026C143.174 28.9456 143.869 29.2171 144.752 29.2171C145.414 29.2171 146.101 29.1323 146.814 28.9626C147.543 28.776 148.231 28.5299 148.875 28.2245L149.893 30.8716C149.096 31.228 148.247 31.5079 147.348 31.7116C146.449 31.9322 145.583 32.0425 144.752 32.0425ZM146.992 23.821C146.89 22.8708 146.635 22.192 146.228 21.7847C145.838 21.3605 145.261 21.1484 144.497 21.1484C143.751 21.1484 143.165 21.369 142.741 21.8102C142.317 22.2344 142.037 22.9047 141.901 23.821H146.992ZM157.213 14.6832V21.6575H163.831V14.6832H167.624V31.6607H163.831V24.7882H157.213V31.6607H153.395V14.6832H157.213ZM178.087 21.6575C179.631 22.1156 180.844 22.718 181.727 23.4647C182.626 24.2113 183.076 25.2549 183.076 26.5954C183.076 27.6475 182.83 28.5808 182.338 29.3953C181.846 30.1928 181.099 30.8292 180.098 31.3043C179.113 31.7625 177.9 31.9916 176.458 31.9916C175.524 31.9916 174.549 31.8813 173.531 31.6607C172.53 31.4231 171.596 31.1177 170.731 30.7443L171.851 27.8936C173.497 28.6232 175.032 28.9881 176.458 28.9881C177.306 28.9881 177.968 28.8269 178.443 28.5044C178.935 28.1651 179.181 27.6815 179.181 27.0536C179.181 26.6463 179.029 26.307 178.723 26.0355C178.418 25.747 178.061 25.5264 177.654 25.3737C177.264 25.204 176.611 24.958 175.694 24.6355C174.71 24.3301 173.879 23.9992 173.2 23.6428C172.521 23.2865 171.944 22.7774 171.469 22.1156C171.011 21.4538 170.782 20.6054 170.782 19.5703C170.782 18.5861 171.028 17.6952 171.52 16.8977C172.029 16.1002 172.767 15.4723 173.734 15.0141C174.702 14.556 175.864 14.3269 177.221 14.3269C178.155 14.3269 179.122 14.4457 180.123 14.6832C181.124 14.9038 182.066 15.2008 182.949 15.5741L181.803 18.374C181.09 18.0685 180.327 17.8225 179.512 17.6358C178.715 17.4322 177.951 17.3304 177.221 17.3304C176.475 17.3304 175.855 17.4916 175.363 17.814C174.888 18.1364 174.651 18.5776 174.651 19.1376C174.651 19.6127 174.786 19.9945 175.058 20.283C175.33 20.5714 175.669 20.8005 176.076 20.9702C176.501 21.1399 177.171 21.369 178.087 21.6575Z" fill="#34623F"/>
</svg>
