<svg width="10" height="10" viewBox="0 0 10 10" fill="none" xmlns="http://www.w3.org/2000/svg">
<path fill-rule="evenodd" clip-rule="evenodd" d="M5.00077 0.333252C2.42915 0.333252 0.332035 2.42706 0.332031 4.99868C0.332025 7.5703 2.42915 9.66659 5.00077 9.66659C7.57239 9.66659 9.66537 7.5703 9.66537 4.99868C9.66536 2.42706 7.57239 0.333252 5.00077 0.333252ZM5.00077 1.18151C7.11395 1.18151 8.8171 2.88549 8.81711 4.99868C8.81711 7.11186 7.11396 8.81833 5.00077 8.81833C2.88758 8.81833 1.18028 7.11186 1.18029 4.99868C1.18029 2.88549 2.88759 1.18151 5.00077 1.18151ZM4.99414 2.02397C4.93809 2.02451 4.8827 2.03616 4.83118 2.05824C4.77966 2.08031 4.73302 2.11238 4.69397 2.15259C4.65492 2.1928 4.62422 2.24035 4.60366 2.2925C4.58309 2.34464 4.57306 2.40034 4.57415 2.45638V4.99868C4.57438 5.05449 4.58562 5.1097 4.60723 5.16116C4.62884 5.21262 4.66038 5.25931 4.70007 5.29855L6.39659 6.9959C6.43578 7.03648 6.48268 7.06884 6.53454 7.09107C6.5864 7.11331 6.64217 7.12497 6.69859 7.12538C6.75501 7.12579 6.81095 7.11495 6.86312 7.09347C6.9153 7.072 6.96267 7.04033 7.00245 7.00033C7.04224 6.96032 7.07364 6.91278 7.09483 6.86048C7.11601 6.80819 7.12655 6.75219 7.12583 6.69578C7.1251 6.63936 7.11313 6.58365 7.09061 6.53192C7.06809 6.48019 7.03548 6.43346 6.99467 6.39449L5.42324 4.82306V2.45638C5.42435 2.39957 5.41403 2.34312 5.3929 2.29038C5.37177 2.23763 5.34026 2.18967 5.30024 2.14933C5.26021 2.109 5.21249 2.07712 5.15991 2.05559C5.10733 2.03405 5.05096 2.0233 4.99414 2.02397Z" fill="black"/>
</svg>
